<?xml version="1.0" encoding="utf-8"?>
<!-- Generator: Adobe Illustrator 27.7.0, SVG Export Plug-In . SVG Version: 6.00 Build 0)  -->
<svg version="1.1" id="Layer_1" xmlns="http://www.w3.org/2000/svg" xmlns:xlink="http://www.w3.org/1999/xlink" x="0px" y="0px"
	 viewBox="0 0 2377.19 623" style="enable-background:new 0 0 2377.19 623;" xml:space="preserve">
<style type="text/css">
	.st0{fill:#008080;}
	.st1{fill:#FFFFFF;}
</style>
<g>
	<g>
		<polygon class="st0" points="71.54,0.5 300.11,0.5 185.83,114.79 		"/>
		<path class="st1" d="M72.75,1l226.16,0L185.83,114.08L72.75,1 M70.34,0l115.49,115.49L301.32,0L70.34,0L70.34,0z"/>
	</g>
	<g>
		<polygon class="st0" points="0.5,622.5 0.5,370.14 179.65,549.29 547.96,547.96 549.29,179.65 370.14,0.5 622.5,0.5 622.5,622.5 
					"/>
		<path class="st1" d="M622,1v621H1V371.35L179.15,549.5l0.29,0.29l0.42,0l367.61-1.33l0.99,0l0-0.99l1.33-367.61l0-0.42l-0.29-0.29
			L371.35,1H622 M623,0H368.94l179.86,179.86l-1.33,367.61l-367.61,1.33L0,368.94V623h623V0L623,0z"/>
	</g>
	<g>
		<polygon class="st0" points="0.5,71.54 114.78,185.83 0.5,300.11 		"/>
		<path class="st1" d="M1,72.75l113.08,113.08L1,298.91V72.75 M0,70.34v230.98l115.49-115.49L0,70.34L0,70.34z"/>
	</g>
</g>
<g>
	<path d="M789.68,543.94V79.06h151.66c48.53,0,86.53,10.49,113.99,31.45c27.46,20.97,41.19,52.42,41.19,94.35
		c0,20.65-6.6,39.11-19.8,55.4c-13.2,16.28-30.55,28.37-52.04,36.24c28.1,5.96,50.18,19.69,66.25,41.19
		c16.07,21.5,24.11,46.51,24.11,75.03c0,42.58-13.78,75.09-41.35,97.54c-27.57,22.46-64.98,33.69-112.23,33.69H789.68z
		 M852.58,276.7h101.85c23.41,0,42.47-6.44,57.15-19.32c14.69-12.88,22.03-30.81,22.03-53.8c0-25.11-7.93-43.9-23.79-56.35
		c-15.86-12.45-38.69-18.68-68.49-18.68h-88.76V276.7z M852.58,325.87v168.9h108.88c28.52,0,50.77-7.08,66.73-21.23
		c15.96-14.15,23.95-34.21,23.95-60.19c0-27.24-6.66-48.64-19.96-64.18c-13.31-15.54-33.79-23.31-61.46-23.31H852.58z"/>
	<path d="M1544.48,482.32c-11.07,17.03-30.28,32.68-57.63,46.94c-27.35,14.26-62.74,21.39-106.16,21.39
		c-55.56,0-101.48-17.77-137.77-53.32c-36.29-35.55-54.44-81.52-54.44-137.93v-95.79c0-56.41,16.92-102.38,50.77-137.93
		c33.84-35.55,77.48-53.32,130.91-53.32c53.21,0,95.04,13.09,125.48,39.27c30.44,26.18,45.98,59.92,46.62,101.21l-0.64,1.92h-60.03
		c-1.92-27.03-12.19-49.28-30.81-66.73c-18.63-17.45-45.5-26.18-80.62-26.18c-35.55,0-64.18,13.31-85.89,39.91
		c-21.71,26.61-32.57,60.35-32.57,101.22v96.43c0,41.3,12.13,75.3,36.4,102.01c24.27,26.72,55.13,40.07,92.59,40.07
		c26.39,0,48-3.51,64.82-10.54c16.81-7.02,28.84-15.01,36.08-23.95V361.31h-101.85v-49.49h164.75V482.32z"/>
	<path d="M1906.55,426.76c0-21.28-7.98-39.11-23.95-53.48c-15.96-14.37-44.28-26.45-84.93-36.24
		c-49.17-11.7-87.54-28.95-115.1-51.72c-27.57-22.77-41.35-51.41-41.35-85.89c0-36.18,14.85-66.41,44.54-90.68
		c29.69-24.27,68.17-36.4,115.42-36.4c50.87,0,91.37,13.94,121.49,41.83c30.12,27.89,44.65,60.24,43.58,97.06l-0.64,1.92h-60.03
		c0-27.24-9-49.28-26.98-66.09c-17.99-16.81-43.8-25.22-77.43-25.22c-31.29,0-55.29,7.08-72,21.23
		c-16.71,14.16-25.06,32.62-25.06,55.4c0,20.23,9.04,37.09,27.14,50.61c18.09,13.52,47.46,25.38,88.12,35.6
		c48.96,12.13,86.21,30.01,111.75,53.64c25.54,23.63,38.32,52.9,38.32,87.8c0,37.47-15.33,67.58-45.98,90.36
		c-30.65,22.78-70.67,34.16-120.05,34.16c-46.41,0-87.44-12.56-123.09-37.68c-35.66-25.12-52.95-58.75-51.88-100.9l0.64-1.92h60.03
		c0,29.8,10.96,52.47,32.89,68.01c21.92,15.54,49.06,23.31,81.42,23.31c31.71,0,56.83-6.71,75.35-20.12
		C1897.29,467.95,1906.55,449.75,1906.55,426.76z"/>
	<path d="M2314.28,426.76c0-21.28-7.98-39.11-23.95-53.48c-15.96-14.37-44.28-26.45-84.93-36.24
		c-49.17-11.7-87.54-28.95-115.1-51.72c-27.57-22.77-41.35-51.41-41.35-85.89c0-36.18,14.85-66.41,44.54-90.68
		c29.69-24.27,68.17-36.4,115.42-36.4c50.87,0,91.37,13.94,121.49,41.83c30.12,27.89,44.65,60.24,43.58,97.06l-0.64,1.92h-60.03
		c0-27.24-9-49.28-26.98-66.09c-17.99-16.81-43.8-25.22-77.43-25.22c-31.29,0-55.29,7.08-72,21.23
		c-16.71,14.16-25.06,32.62-25.06,55.4c0,20.23,9.04,37.09,27.14,50.61c18.09,13.52,47.46,25.38,88.12,35.6
		c48.96,12.13,86.21,30.01,111.75,53.64c25.54,23.63,38.32,52.9,38.32,87.8c0,37.47-15.33,67.58-45.98,90.36
		c-30.65,22.78-70.67,34.16-120.05,34.16c-46.41,0-87.44-12.56-123.09-37.68c-35.66-25.12-52.95-58.75-51.88-100.9l0.64-1.92h60.03
		c0,29.8,10.96,52.47,32.89,68.01c21.92,15.54,49.06,23.31,81.42,23.31c31.71,0,56.83-6.71,75.35-20.12
		C2305.03,467.95,2314.28,449.75,2314.28,426.76z"/>
</g>
</svg>
